# xmcd CD database file
#
# Track frame offsets:
#	182
#	12707
#	27482
#	48632
#	57857
#	73982
#	79757
#	104132
#	121907
#	139382
#	150557
#	156332
#	170432
#	181757
#	218507
#
# Disc length: 3081 seconds
#
# Revision: 5
# Processed by: cddbd v1.5.1PL2 Copyright (c) Steve Scherf et al.
# Submitted via: CDex 1.51
#
DISCID=d90c070f
DTITLE=48th Higlanders of Canada-Scottish National Pipe and Drum Corps - Amazing Grace and Other Bagpipe Favorites
DYEAR=1993
DGENRE=Celtic
TTITLE0=Amazing Grace
TTITLE1=Scots Wha Hae/Bonnie Lass of Fyvie/Cockney Jocks
TTITLE2=48th Highlanders/Jimmie Finlatey/ The Children
TTITLE3=Scotland the Brave
TTITLE4=Wee McGregor
TTITLE5=Highland Laddie
TTITLE6=The old rustic Bridge by the mill/Townsay Castle/Money Musk/Miss McLeod O'Raasey/Cock of the North
TTITLE7=Skye Boat Song/My Home/Westering Home
TTITLE8=Loch Marie/The Green hills of Tyroll/Lochanside
TTITLE9=My Home in the Green Hills
TTITLE10=Battle on the Tyne
TTITLE11=The day thou Gavest/Going Home
TTITLE12=Jonnie Cope/ MacKays's Farewell/Mormand Braes Are Bonny
TTITLE13=Captin Lumsden/Captian Horne/Aspen Bank/Highland Whiskey/Merry Blacksmith/Methven Castle/Merry Lads of Dornoch/Come by the Hills/Lord Dunmore's Jig/Willies Brogues/Jolly Beggarman
TTITLE14=Auld Lang Syne/Will Ye no Come back again/Bide Awa
EXTD=YEAR: 1993
EXTT0=
EXTT1=
EXTT2=
EXTT3=
EXTT4=
EXTT5=
EXTT6=
EXTT7=
EXTT8=
EXTT9=
EXTT10=
EXTT11=
EXTT12=
EXTT13=
EXTT14=
PLAYORDER=
